<svg xmlns="http://www.w3.org/2000/svg" width="54.744" height="59.72" viewBox="0 0 54.744 59.72">
  <g id="Group_16" data-name="Group 16" opacity="0.12">
    <path id="Path_36" data-name="Path 36" d="M50.512,34.837H46.8V3.733H4.713V55.988H37.067l3.457,1.679.01,2.053H1V0H50.512Z" transform="translate(-1)" fill="#fff" fill-rule="evenodd"/>
    <path id="Path_37" data-name="Path 37" d="M26.7,43.392a15.7,15.7,0,1,1,15.7-15.7A15.7,15.7,0,0,1,26.7,43.392Zm0-3.767A11.929,11.929,0,1,0,14.767,27.7,11.929,11.929,0,0,0,26.7,39.625Z" transform="translate(12.352 16.328)" fill="#fff" fill-rule="evenodd"/>
    <rect id="Rectangle_9" data-name="Rectangle 9" width="31.392" height="3.924" transform="translate(9.341 12.399)" fill="#fff"/>
    <rect id="Rectangle_10" data-name="Rectangle 10" width="18.312" height="3.924" transform="translate(9.715 24.798)" fill="#fff"/>
    <rect id="Rectangle_11" data-name="Rectangle 11" width="13.08" height="3.924" transform="translate(9.803 37.197)" fill="#fff"/>
    <path id="Path_38" data-name="Path 38" d="M19.924,22.848h6.54v3.924H16V15h3.924Z" transform="translate(20.432 21.883)" fill="#fff" fill-rule="evenodd"/>
  </g>
</svg>
