<svg xmlns="http://www.w3.org/2000/svg" width="59.72" height="59.72" viewBox="0 0 59.72 59.72">
  <g id="noun_expired_1241402" opacity="0.12">
    <path id="Path_33" data-name="Path 33" d="M41.285,18.19H37.32v16.5H26.5v3.966H41.285Z" transform="translate(-11.673 -8.6)" fill="#fff"/>
    <path id="Path_34" data-name="Path 34" d="M56.065,34.423A26.966,26.966,0,1,0,34.423,56.065,15.466,15.466,0,1,0,56.065,34.423ZM29.545,52.735a23.19,23.19,0,1,1,23.19-23.19,23.473,23.473,0,0,1-.164,2.883A15.46,15.46,0,0,0,32.428,52.571a23.456,23.456,0,0,1-2.883.164ZM46.805,58.5a11.7,11.7,0,1,1,.006,0Z" transform="translate(-2.576 -2.576)" fill="#fff"/>
    <rect id="Rectangle_7" data-name="Rectangle 7" width="3.966" height="12.393" transform="translate(42.204 35.683)" fill="#fff"/>
    <rect id="Rectangle_8" data-name="Rectangle 8" width="3.966" height="3.8" transform="translate(42.204 48.828)" fill="#fff"/>
  </g>
</svg>
