<svg xmlns="http://www.w3.org/2000/svg" width="16.416" height="20" viewBox="0 0 16.416 20">
  <g id="noun_reminder_3408059" transform="translate(-11.037 -2.5)">
    <path id="Path_84" data-name="Path 84" d="M27.24,16.711l-1.811-3.221v-3.6a6.219,6.219,0,0,0-5.368-6.147V3.321A.822.822,0,0,0,19.24,2.5a.836.836,0,0,0-.821.821v.421A6.187,6.187,0,0,0,13.05,9.889v3.621l-1.811,3.2a1.569,1.569,0,0,0,.021,1.579,1.59,1.59,0,0,0,1.368.779h2.884a3.75,3.75,0,0,0,7.474,0h2.884a1.59,1.59,0,0,0,1.368-.779A1.568,1.568,0,0,0,27.24,16.711Zm-8-11.368a4.555,4.555,0,0,1,4.547,4.547V12.9H14.692V9.889A4.555,4.555,0,0,1,19.24,5.342Zm0,15.516a2.126,2.126,0,0,1-2.084-1.768h4.168A2.126,2.126,0,0,1,19.24,20.858Zm-6.505-3.432,1.621-2.884h9.789l1.621,2.884Z" transform="translate(0 0)" fill="#666"/>
  </g>
</svg>
