<svg xmlns="http://www.w3.org/2000/svg" width="20" height="20" viewBox="0 0 20 20">
  <g id="perm_phone_msg-24px" opacity="0.75">
    <path id="Path_60" data-name="Path 60" d="M0,0H20V20H0Z" fill="none"/>
    <path id="Path_61" data-name="Path 61" d="M16.222,12.722a8.836,8.836,0,0,1-2.777-.443.794.794,0,0,0-.793.187l-1.711,1.711A11.725,11.725,0,0,1,5.816,9.059L7.527,7.34a.764.764,0,0,0,.194-.786,8.836,8.836,0,0,1-.443-2.777A.78.78,0,0,0,6.5,3H3.778A.78.78,0,0,0,3,3.778,13.221,13.221,0,0,0,16.222,17,.78.78,0,0,0,17,16.222V13.5A.78.78,0,0,0,16.222,12.722ZM10,3v7.778l2.333-2.333H17V3Z" transform="translate(0 0)" fill="#fff"/>
  </g>
</svg>
