<svg xmlns="http://www.w3.org/2000/svg" width="54.062" height="59.72" viewBox="0 0 54.062 59.72">
  <g id="noun_Document_4090" opacity="0.12">
    <g id="Group_10" data-name="Group 10" transform="translate(0 0)">
      <rect id="Rectangle_12" data-name="Rectangle 12" width="24.35" height="4.058" transform="translate(9.508 33.772)" fill="#fff"/>
      <rect id="Rectangle_13" data-name="Rectangle 13" width="24.35" height="4.058" transform="translate(9.508 22.515)" fill="#fff"/>
      <rect id="Rectangle_14" data-name="Rectangle 14" width="24.35" height="4.058" transform="translate(9.508 11.258)" fill="#fff"/>
      <path id="Path_41" data-name="Path 41" d="M51.547,8.8h-8.8V2.514A2.313,2.313,0,0,0,40.232,0H2.514A2.313,2.313,0,0,0,0,2.514V49.032a2.313,2.313,0,0,0,2.514,2.516h8.8v5.658A2.313,2.313,0,0,0,13.83,59.72H51.547a2.313,2.313,0,0,0,2.515-2.514V11.316A2.312,2.312,0,0,0,51.547,8.8ZM3.772,46.519V5.029A1.157,1.157,0,0,1,5.029,3.771H37.717a1.157,1.157,0,0,1,1.257,1.258v41.49a1.156,1.156,0,0,1-1.257,1.256H5.029A1.156,1.156,0,0,1,3.772,46.519ZM50.289,54.69a1.156,1.156,0,0,1-1.256,1.256H16.973a1.156,1.156,0,0,1-1.257-1.256V51.547H40.232a2.313,2.313,0,0,0,2.515-2.515V13.2h6.286a1.156,1.156,0,0,1,1.256,1.256V54.69Z" transform="translate(0 0)" fill="#fff"/>
    </g>
  </g>
</svg>
