<svg xmlns="http://www.w3.org/2000/svg" width="20" height="20" viewBox="0 0 20 20">
  <g id="supervisor_account-24px" opacity="0.75">
    <path id="Path_56" data-name="Path 56" d="M0,0H20V20H0Z" fill="none"/>
    <path id="Path_57" data-name="Path 57" d="M13.6,10a1.9,1.9,0,0,0,1.992-1.786A1.9,1.9,0,0,0,13.6,6.429a1.9,1.9,0,0,0-2,1.786A1.9,1.9,0,0,0,13.6,10Zm-6-.714A2.272,2.272,0,0,0,9.992,7.143,2.272,2.272,0,0,0,7.6,5,2.279,2.279,0,0,0,5.2,7.143,2.279,2.279,0,0,0,7.6,9.286Zm6,2.143c-1.464,0-4.4.657-4.4,1.964V15H18V13.393C18,12.086,15.064,11.429,13.6,11.429Zm-6-.714c-1.864,0-5.6.836-5.6,2.5V15H7.6V13.393c0-.607.264-1.671,1.9-2.479A10.956,10.956,0,0,0,7.6,10.714Z" fill="#fff"/>
  </g>
</svg>
